<mxfile host="app.diagrams.net" modified="2023-05-24T22:13:41.012Z" agent="Mozilla/5.0 (Macintosh; Intel Mac OS X 10_15_7) AppleWebKit/605.1.15 (KHTML, like Gecko) Version/16.3 Safari/605.1.15" version="21.3.3" etag="yRDASItOsZ5IyTmKO5Ap" type="github">
  <diagram name="Page-1" id="uN88mUgLvUYXU6dqaU9p">
    <mxGraphModel>
      <root>
        <mxCell id="0" />
        <mxCell id="1" parent="0" />
      </root>
    </mxGraphModel>
  </diagram>
</mxfile>
